<?xml version="1.0" encoding="UTF-8" standalone="no"?><!DOCTYPE svg PUBLIC "-//W3C//DTD SVG 1.1//EN" "http://www.w3.org/Graphics/SVG/1.1/DTD/svg11.dtd"><svg width="100%" height="100%" viewBox="0 0 4500 4500" version="1.1" xmlns="http://www.w3.org/2000/svg" xmlns:xlink="http://www.w3.org/1999/xlink" xml:space="preserve" xmlns:serif="http://www.serif.com/" style="fill-rule:evenodd;clip-rule:evenodd;stroke-linejoin:round;stroke-miterlimit:2;"><g><circle cx="2250" cy="2250" r="2072.83" style="fill:#eb5e2b;"/><path d="M2250,483.865c-974.756,0 -1766.13,791.379 -1766.13,1766.13c0,974.756 791.379,1766.13 1766.13,1766.13c974.756,-0 1766.13,-791.379 1766.13,-1766.13c-0,-974.756 -791.379,-1766.13 -1766.13,-1766.13Zm0,75.563c933.052,0 1690.57,757.52 1690.57,1690.57c-0,933.052 -757.52,1690.57 -1690.57,1690.57c-933.052,-0 -1690.57,-757.52 -1690.57,-1690.57c0,-933.052 757.52,-1690.57 1690.57,-1690.57Z" style="fill:#fff;"/><path d="M2961.45,3100.53l136.656,151.076l-136.656,-0l0,-151.076Zm-1279.46,-1414.62l-0.075,0.068l727.539,804.311l-159.452,178.211l-711.45,-795.15l-0,1378.26l-253.891,-0l0,-2003.22l397.329,437.521Zm1533.35,1465.22l-253.891,-280.681l0,-997.096l-448.502,501.267l-159.871,-176.741l862.264,-949.487l-0,1902.74Z" style="fill:#fff;fill-rule:nonzero;"/></g></svg>